<svg xmlns="http://www.w3.org/2000/svg" xmlns:xlink="http://www.w3.org/1999/xlink" viewBox="0 0 265.33 267.47"><defs><style>.cls-1{fill:none;}.cls-2{isolation:isolate;}.cls-3{clip-path:url(#clip-path);}.cls-4{fill:url(#linear-gradient);}.cls-5{fill:url(#linear-gradient-2);}.cls-6,.cls-8{fill:#eb0000;}.cls-6,.cls-7{mix-blend-mode:multiply;}.cls-9{fill:url(#linear-gradient-3);}.cls-10{fill:url(#linear-gradient-4);}</style><clipPath id="clip-path" transform="translate(388.26 58.81)"><rect class="cls-1" x="-420.51" y="-79.76" width="504" height="288"/></clipPath><linearGradient id="linear-gradient" x1="-513.96" y1="286.28" x2="-605.28" y2="173.85" gradientTransform="translate(194.5 -204.2) rotate(-6.69)" gradientUnits="userSpaceOnUse"><stop offset="0" stop-color="#9e9e9e"/><stop offset="0.16" stop-color="#b9b9b9"/><stop offset="0.38" stop-color="#d7d7d7"/><stop offset="0.6" stop-color="#ededed"/><stop offset="0.81" stop-color="#fbfbfb"/><stop offset="1" stop-color="#fff"/></linearGradient><linearGradient id="linear-gradient-2" x1="-462.33" y1="212.27" x2="-496.61" y2="89.41" xlink:href="#linear-gradient"/><linearGradient id="linear-gradient-3" x1="-392.75" y1="294.69" x2="-405.36" y2="158.95" xlink:href="#linear-gradient"/><linearGradient id="linear-gradient-4" x1="-169.42" y1="157.74" x2="-272.26" y2="89.45" gradientTransform="translate(-17.92 18.29) rotate(0.77)" xlink:href="#linear-gradient"/></defs><g class="cls-2"><g id="Layer_1" data-name="Layer 1"><g class="cls-3"><g id="Trifilli"><path class="cls-4" d="M-276.36,135.27c.86,3.1-.4,6.15-2.81,6.82l-72.78,20c-2.4.66-5.05-1.32-5.9-4.42L-388,48.28c-.86-3.1.4-6.16,2.81-6.82l72.78-20c2.41-.67,5,1.31,5.91,4.42Z" transform="translate(388.26 58.81)"/><path d="M-377.61,52.08l-2.91.8-.19,1.32a2,2,0,0,0,0,.71.39.39,0,0,0,.24.26,1.54,1.54,0,0,0,.76,0l0,.21L-382,56l-.06-.21a1.35,1.35,0,0,0,.55-.38,3.54,3.54,0,0,0,.33-1.25l.94-6.92.19-.05,4.34,5.53a2.78,2.78,0,0,0,.85.82,1.24,1.24,0,0,0,.78.06l.06.2-3,.82-.05-.21a1.12,1.12,0,0,0,.56-.31.4.4,0,0,0,.07-.36,2.17,2.17,0,0,0-.43-.71Zm-.27-.37L-380,49l-.47,3.4Z" transform="translate(388.26 58.81)"/><path d="M-374.46,59.64a2.22,2.22,0,0,0-1.14.79,2.51,2.51,0,0,0,.35-2A2.06,2.06,0,0,0-377.78,57a2.05,2.05,0,0,0-1.43,2.52,2.59,2.59,0,0,0,1.32,1.57,2.19,2.19,0,0,0-1.37-.1,2.05,2.05,0,0,0-1.43,2.52h0a1.94,1.94,0,0,0,.15.36,2,2,0,0,0,2.37,1.05,2.05,2.05,0,0,0,1.43-2.52.75.75,0,0,0-.05-.16,1.81,1.81,0,0,0,.35.07c.15.85.51,3,.19,3.66l1.77-.49c-.59-.36-1.41-2.43-1.71-3.24a1.55,1.55,0,0,0,.26-.25,1.16,1.16,0,0,0,0,.18,2.05,2.05,0,0,0,2.52,1.43,2,2,0,0,0,1.5-2.11,2.76,2.76,0,0,0-.06-.4h0A2.06,2.06,0,0,0-374.46,59.64Z" transform="translate(388.26 58.81)"/><path d="M-286.74,131.47l2.91-.8.19-1.33a2,2,0,0,0,0-.7.4.4,0,0,0-.25-.26,1.46,1.46,0,0,0-.75,0l-.06-.2,2.37-.65.05.2a1.26,1.26,0,0,0-.55.39,3.48,3.48,0,0,0-.33,1.25l-.94,6.92-.19.05-4.34-5.53a2.89,2.89,0,0,0-.84-.82,1.15,1.15,0,0,0-.79-.06l-.06-.2,3-.82,0,.2a1.2,1.2,0,0,0-.56.32.38.38,0,0,0-.07.35,2.26,2.26,0,0,0,.43.71Zm.27.37,2.11,2.68.47-3.39Z" transform="translate(388.26 58.81)"/><path d="M-283.66,120a2.39,2.39,0,0,0-.15-.37,2.05,2.05,0,0,0-2.37-1,2.06,2.06,0,0,0-1.43,2.53,1,1,0,0,0,.05.16,1.69,1.69,0,0,0-.34-.08c-.16-.85-.52-3-.2-3.66l-1.77.49c.59.36,1.41,2.44,1.71,3.25a2,2,0,0,0-.26.24,1,1,0,0,0,0-.17,2,2,0,0,0-2.52-1.44,2.05,2.05,0,0,0-1.5,2.12,2.63,2.63,0,0,0,.06.39h0a2.05,2.05,0,0,0,2.52,1.43,2.16,2.16,0,0,0,1.14-.79,2.52,2.52,0,0,0-.35,2,2,2,0,0,0,2.53,1.43,2,2,0,0,0,1.43-2.52,2.59,2.59,0,0,0-1.32-1.56,2.39,2.39,0,0,0,1.37.1,2.05,2.05,0,0,0,1.43-2.52h0Z" transform="translate(388.26 58.81)"/><path d="M-323.3,84.65c-3.68,1-4.53,3.43-4.78,3.29s2.89-3.23,1.45-8.47a8.61,8.61,0,0,0-10.59-6,8.61,8.61,0,0,0-6,10.59c1.43,5.19,5.7,6.3,5.55,6.57s-2.22-1.4-5.76-.43a8.62,8.62,0,0,0-6,10.59,0,0,0,0,1,0,0,0,0,0,0,1,0,0,8.15,8.15,0,0,0,.61,1.56,8.61,8.61,0,0,0,10,4.39,8.6,8.6,0,0,0,6-10.58,7,7,0,0,0-.22-.69,7.55,7.55,0,0,0,1.45.32c.65,3.57,2.15,12.78.81,15.35l7.43-2c-2.48-1.52-5.91-10.21-7.17-13.61a7.59,7.59,0,0,0,1.08-1,6.36,6.36,0,0,0,.16.73,8.61,8.61,0,0,0,10.59,6,8.63,8.63,0,0,0,6.31-8.88,8.4,8.4,0,0,0-.28-1.64v-.07A8.6,8.6,0,0,0-323.3,84.65Z" transform="translate(388.26 58.81)"/></g><g id="Heart"><path class="cls-5" d="M-220.73,60.51c0,3.22-2,5.83-4.51,5.84l-75.49.21c-2.49,0-4.52-2.6-4.53-5.82l-.32-113.5c0-3.22,2-5.83,4.51-5.84l75.48-.21c2.5,0,4.53,2.6,4.54,5.82Z" transform="translate(388.26 58.81)"/><path class="cls-6" d="M-298.34-40.32a1.8,1.8,0,0,0-2-1.33,2,2,0,0,0-1.94,2.16c0,1.21.93,2.11,2,3.05a21,21,0,0,1,1.92,1.86h0a23.1,23.1,0,0,1,1.92-1.88c1.06-.94,2-1.84,2-3.06a2,2,0,0,0-2-2.14A1.79,1.79,0,0,0-298.34-40.32Z" transform="translate(388.26 58.81)"/><g class="cls-7"><path class="cls-8" d="M-296.9-47.31h-3l-.53,1.23a1.9,1.9,0,0,0-.19.68.4.4,0,0,0,.17.31,1.5,1.5,0,0,0,.73.18v.21h-2.45v-.22a1.42,1.42,0,0,0,.63-.22,3.75,3.75,0,0,0,.65-1.13l2.72-6.42h.2l2.73,6.48a2.87,2.87,0,0,0,.6,1,1.21,1.21,0,0,0,.75.26v.21H-297v-.21a1.18,1.18,0,0,0,.63-.16.39.39,0,0,0,.16-.32,2.21,2.21,0,0,0-.23-.8Zm-.16-.42-1.34-3.15-1.34,3.15Z" transform="translate(388.26 58.81)"/></g><path class="cls-6" d="M-228,48.07a1.8,1.8,0,0,0,2,1.33A2,2,0,0,0-224,47.24c0-1.21-.94-2.11-2-3A22,22,0,0,1-228,42.33h0a23.1,23.1,0,0,1-1.92,1.88c-1.06.94-2,1.84-2,3.06a2,2,0,0,0,2,2.14A1.79,1.79,0,0,0-228,48.07Z" transform="translate(388.26 58.81)"/><g class="cls-7"><path class="cls-8" d="M-229.41,55.06h3l.53-1.23a1.9,1.9,0,0,0,.19-.68.4.4,0,0,0-.17-.31,1.5,1.5,0,0,0-.73-.18v-.21h2.45v.22a1.37,1.37,0,0,0-.63.22A3.54,3.54,0,0,0-225.4,54l-2.72,6.42h-.2l-2.74-6.48a3.05,3.05,0,0,0-.59-1,1.21,1.21,0,0,0-.75-.26v-.21h3.08v.21a1.18,1.18,0,0,0-.63.16.4.4,0,0,0-.17.32,2.52,2.52,0,0,0,.24.8Zm.16.42,1.34,3.15,1.34-3.15Z" transform="translate(388.26 58.81)"/></g><path class="cls-6" d="M-263.18-6.45c-.52-4-4.83-6.39-9.26-6.22-4.8.16-9.12,3.8-9.1,10.09,0,5.69,4.38,9.91,9.4,14.29a105.24,105.24,0,0,1,9,8.74h0a103.49,103.49,0,0,1,9-8.79c5-4.41,9.34-8.65,9.32-14.34,0-6.3-4.35-9.91-9.16-10C-258.4-12.86-262.69-10.44-263.18-6.45Z" transform="translate(388.26 58.81)"/></g><g id="King"><path class="cls-9" d="M-147.08,127.37c-.68,3.14-3.21,5.27-5.65,4.74l-73.78-16c-2.44-.53-3.87-3.51-3.19-6.65l24-110.94c.68-3.15,3.21-5.27,5.65-4.75l73.79,16c2.44.53,3.86,3.51,3.18,6.65Z" transform="translate(388.26 58.81)"/><path d="M-166.38,55c-5.15-7.32-5.89-11.09-5.89-11.09h0s-2.24,3.12-9.95,7.67c-6.18,3.64-11.15,6.61-12.33,12a8.82,8.82,0,0,0,6.75,10.47c3.33.72,6.74,0,8.78-2.2-1.21,3.31-3.15,8.25-5.58,9.26l8.18,1.77c-1.8-1.93-1.52-7.22-1.26-10.73,1,2.82,3.77,4.9,7.09,5.62a8.81,8.81,0,0,0,10.47-6.75C-159,65.62-162.25,60.87-166.38,55Z" transform="translate(388.26 58.81)"/><path d="M-198.68,13.57a7.34,7.34,0,0,1-1.21-2.28h0a7.08,7.08,0,0,1-2,1.57c-1.28.75-2.3,1.36-2.54,2.48a1.81,1.81,0,0,0,1.39,2.15,1.91,1.91,0,0,0,1.81-.46c-.25.68-.65,1.7-1.15,1.91l1.68.37c-.37-.4-.31-1.5-.26-2.22a1.9,1.9,0,0,0,1.46,1.17,1.81,1.81,0,0,0,2.15-1.39C-197.15,15.75-197.83,14.77-198.68,13.57Z" transform="translate(388.26 58.81)"/><path d="M-197.35,6.46l-3-.64-.78,1.09a2,2,0,0,0-.33.62.4.4,0,0,0,.1.35,1.46,1.46,0,0,0,.68.32l-.05.21-2.4-.52.05-.21a1.23,1.23,0,0,0,.66-.08,3.54,3.54,0,0,0,.87-1l4-5.69.2,0L-196,7.9A2.9,2.9,0,0,0-195.61,9a1.15,1.15,0,0,0,.67.41l0,.21L-198,9l0-.21a1.09,1.09,0,0,0,.65,0,.38.38,0,0,0,.23-.28,2.16,2.16,0,0,0-.06-.83Zm-.07-.45L-198,2.65l-2,2.79Z" transform="translate(388.26 58.81)"/><path d="M-149.72,108.44a1.9,1.9,0,0,0-1.8.46c.25-.68.64-1.7,1.15-1.91l-1.68-.36c.37.39.31,1.49.25,2.21a1.89,1.89,0,0,0-1.45-1.16,1.8,1.8,0,0,0-2.15,1.38c-.25,1.12.43,2.1,1.28,3.31a6.93,6.93,0,0,1,1.21,2.28h0a6.94,6.94,0,0,1,2-1.58c1.27-.75,2.29-1.36,2.53-2.48A1.81,1.81,0,0,0-149.72,108.44Z" transform="translate(388.26 58.81)"/><path d="M-155.45,119.47l2.95.64.78-1.09a2.33,2.33,0,0,0,.34-.62.41.41,0,0,0-.1-.34,1.35,1.35,0,0,0-.68-.33l0-.21,2.4.52,0,.21a1.38,1.38,0,0,0-.67.08,3.54,3.54,0,0,0-.87,1l-4,5.7-.19,0-1.29-6.91a2.94,2.94,0,0,0-.36-1.12,1.22,1.22,0,0,0-.68-.41l.05-.21,3,.65,0,.21a1.1,1.1,0,0,0-.65,0,.41.41,0,0,0-.23.28,2.67,2.67,0,0,0,.06.83Zm.07.45.63,3.36,2-2.79Z" transform="translate(388.26 58.81)"/></g><g id="Karo"><path class="cls-10" d="M-182.62,168.38c1.4,2.9.7,6.13-1.55,7.21l-68,32.71c-2.25,1.08-5.21-.39-6.6-3.29L-308,102.71c-1.39-2.9-.7-6.13,1.55-7.21l68-32.71c2.25-1.08,5.2.39,6.6,3.29Z" transform="translate(388.26 58.81)"/><g class="cls-7"><path class="cls-8" d="M-297.21,104l-2.72,1.31.06,1.34a1.74,1.74,0,0,0,.12.69.38.38,0,0,0,.29.21,1.47,1.47,0,0,0,.73-.16l.1.19-2.22,1.07-.09-.2a1.25,1.25,0,0,0,.47-.47,3.43,3.43,0,0,0,.1-1.29l-.31-7,.19-.08,5.25,4.67a3,3,0,0,0,1,.65,1.15,1.15,0,0,0,.78-.08l.1.19-2.78,1.33-.09-.19a1.23,1.23,0,0,0,.5-.41.41.41,0,0,0,0-.36,2.31,2.31,0,0,0-.56-.63Zm-.33-.32-2.55-2.26.14,3.43Z" transform="translate(388.26 58.81)"/></g><polygon class="cls-6" points="90.48 172.94 91.72 167.54 96.7 169.95 95.47 175.34 90.48 172.94"/><g class="cls-7"><path class="cls-8" d="M-193.4,167.11l2.72-1.31,0-1.34a2.14,2.14,0,0,0-.12-.69.38.38,0,0,0-.29-.21,1.5,1.5,0,0,0-.74.16l-.09-.19,2.21-1.07.1.19a1.49,1.49,0,0,0-.48.48,3.66,3.66,0,0,0-.1,1.29l.31,7-.18.09-5.26-4.67a3.14,3.14,0,0,0-1-.66,1.26,1.26,0,0,0-.79.09l-.09-.19,2.77-1.33.1.19a1.1,1.1,0,0,0-.5.41.38.38,0,0,0,0,.36,2.41,2.41,0,0,0,.55.62Zm.33.31,2.56,2.27-.14-3.43Z" transform="translate(388.26 58.81)"/></g><polygon class="cls-6" points="195.43 215.77 194.2 221.17 189.21 218.76 190.45 213.37 195.43 215.77"/><polygon class="cls-6" points="129.36 200.89 134.76 177.31 156.55 187.82 151.16 211.41 129.36 200.89"/></g></g></g></g></svg>